<svg xmlns="http://www.w3.org/2000/svg" width="512" height="512" viewBox="0 0 512 512">
<circle r="256" cx="256" cy="256" fill="#ffcc00" shape="circle" transform="matrix(1,0,0,1,0,0)"/>
<g transform="matrix(0.87,0,0,0.87,33.28,33.28)">
<path d="m256 0c-141.61 0-256 114.43-256 256 0 141.61 114.43 256 256 256 141.61 0 256-114.43 256-256 0-141.61-114.42-256-256-256zm135 196c0 2.03-.41 4.04-1.21 5.91-39.9 93.09-67.74 140.36-58.94 201.97 1.29 9.02-5.72 17.12-14.85 17.12h-120c-7.46 0-13.79-5.49-14.85-12.88-10.66-74.65 42.2-118.71 81.36-197.12h-57.24l-10.85 21.71c-2.54 5.08-7.74 8.29-13.42 8.29h-45c-8.28 0-15-6.72-15-15v-120c0-8.28 6.72-15 15-15h105c26.28 0 50.63 15.73 53.32 17.52 24.77 16.32 48.61 16.31 73.39-.02 10.05-6.62 23.29.67 23.29 12.5zm-113.32-62.52c-5.24-3.46-22.12-12.48-36.68-12.48h-90v90h20.73l10.85-21.71c2.54-5.08 7.74-8.29 13.42-8.29h90c10.8 0 18.01 11.05 13.79 20.91-37.54 87.58-91.13 129.7-90 189.09h89.67c-3.34-62.35 25.3-113.85 61.54-198.08v-47.81c-25.52 9.44-52.97 8.61-83.32-11.63z" fill="#1e1e1e" />
</g>
</svg>
